<?xml version="1.0" encoding="utf-8"?>
<!DOCTYPE svg PUBLIC "-//W3C//DTD SVG 1.1//EN" "http://www.w3.org/Graphics/SVG/1.1/DTD/svg11.dtd">
<svg fill="#C5C7CD" width="1rem" height="1rem" version="1.1" xmlns="http://www.w3.org/2000/svg" xmlns:xlink="http://www.w3.org/1999/xlink" x="0px" y="0px" viewBox="0 0 1000 1000" enable-background="new 0 0 1000 1000" xml:space="preserve">
<metadata> Svg Vector Icons : http://www.onlinewebfonts.com/icon </metadata>
<g><path d="M898.1,762.4c-10.7-27.4-88.6-143.2-89.2-373.5c-0.5-133.7-86.1-247.4-205.1-290.2C595.9,48.4,552.4,10,500,10c-52.4,0-95.9,38.4-103.7,88.7C277.1,141.5,191.5,255.3,191.5,389c0,230.1-80.5,351.7-88.8,372.8c-7.6,19.4-19.3,36.9-11.3,56.3c7.9,19.3,26.9,31.9,47.8,31.9h189.4c16.2,79.9,86.8,140,171.5,140s155.3-60.1,171.5-140h189.7c20.6,0,39.1-12.5,47.2-31.5C916.5,799.6,905.6,781.6,898.1,762.4z"/></g>
</svg>