<svg width="30" height="9" viewBox="0 0 30 9" fill="none" xmlns="http://www.w3.org/2000/svg">
<path d="M7.77491 0.168V8H6.36691V4.601H2.35191V8H0.95491V0.168H2.35191V3.446H6.36691V0.168H7.77491ZM9.97346 0.168H11.3925V8H9.97346V0.168ZM20.1227 3.765V7.527C19.7634 7.703 19.3307 7.84233 18.8247 7.945C18.3187 8.04767 17.8017 8.099 17.2737 8.099C16.467 8.099 15.7667 7.93767 15.1727 7.615C14.5787 7.29233 14.124 6.83033 13.8087 6.229C13.4934 5.62767 13.3357 4.909 13.3357 4.073C13.3357 3.25167 13.4934 2.54033 13.8087 1.939C14.124 1.33767 14.5714 0.875666 15.1507 0.552999C15.7374 0.230333 16.423 0.0689998 17.2077 0.0689998C17.7577 0.0689998 18.271 0.149666 18.7477 0.310999C19.2317 0.472333 19.635 0.699666 19.9577 0.993L19.4737 2.027C19.107 1.741 18.7477 1.53567 18.3957 1.411C18.0437 1.28633 17.6587 1.224 17.2407 1.224C16.434 1.224 15.8217 1.466 15.4037 1.95C14.993 2.434 14.7877 3.14167 14.7877 4.073C14.7877 5.03367 15.0004 5.75967 15.4257 6.251C15.851 6.735 16.4854 6.977 17.3287 6.977C17.842 6.977 18.348 6.90733 18.8467 6.768V4.788H17.1527V3.765H20.1227ZM29.0405 0.168V8H27.6325V4.601H23.6175V8H22.2205V0.168H23.6175V3.446H27.6325V0.168H29.0405Z" fill="white"/>
</svg>
