<svg width="27" height="9" viewBox="0 0 27 9" fill="none" xmlns="http://www.w3.org/2000/svg">
<path d="M0.101883 0.168H1.52088V6.834H5.18388V8H0.101883V0.168ZM9.80347 8.099C9.04814 8.099 8.38814 7.93767 7.82347 7.615C7.26614 7.285 6.83347 6.81933 6.52547 6.218C6.2248 5.60933 6.07447 4.89433 6.07447 4.073C6.07447 3.259 6.2248 2.55133 6.52547 1.95C6.82614 1.34133 7.25514 0.875666 7.81247 0.552999C8.37714 0.230333 9.0408 0.0689998 9.80347 0.0689998C10.5661 0.0689998 11.2261 0.230333 11.7835 0.552999C12.3481 0.875666 12.7771 1.34133 13.0705 1.95C13.3711 2.55133 13.5215 3.259 13.5215 4.073C13.5215 4.89433 13.3711 5.60933 13.0705 6.218C12.7698 6.81933 12.3408 7.285 11.7835 7.615C11.2261 7.93767 10.5661 8.099 9.80347 8.099ZM9.80347 6.966C10.5295 6.966 11.0941 6.71667 11.4975 6.218C11.9008 5.71933 12.1025 5.00433 12.1025 4.073C12.1025 3.149 11.9008 2.44133 11.4975 1.95C11.0941 1.45133 10.5295 1.202 9.80347 1.202C9.07747 1.202 8.5128 1.44767 8.10947 1.939C7.70614 2.43033 7.50447 3.14167 7.50447 4.073C7.50447 5.00433 7.70614 5.71933 8.10947 6.218C8.5128 6.71667 9.07747 6.966 9.80347 6.966ZM26.4908 0.168L23.7188 8H22.5638L20.5948 2.368L18.6038 8H17.4488L14.6878 0.168H16.1288L18.0868 6.009L20.1218 0.168H21.1338L23.1248 6.053L25.1268 0.168H26.4908Z" fill="white"/>
</svg>
