<svg width="51" height="9" viewBox="0 0 51 9" fill="none" xmlns="http://www.w3.org/2000/svg">
<path d="M6.98411 0.168V8H5.92811L1.70411 2.511V8H0.384109V0.168H1.44011L5.65311 5.646V0.168H6.98411ZM12.6638 8.099C11.9085 8.099 11.2485 7.93767 10.6838 7.615C10.1265 7.285 9.69382 6.81933 9.38582 6.218C9.08515 5.60933 8.93482 4.89433 8.93482 4.073C8.93482 3.259 9.08515 2.55133 9.38582 1.95C9.68649 1.34133 10.1155 0.875666 10.6728 0.552999C11.2375 0.230333 11.9012 0.0689998 12.6638 0.0689998C13.4265 0.0689998 14.0865 0.230333 14.6438 0.552999C15.2085 0.875666 15.6375 1.34133 15.9308 1.95C16.2315 2.55133 16.3818 3.259 16.3818 4.073C16.3818 4.89433 16.2315 5.60933 15.9308 6.218C15.6302 6.81933 15.2012 7.285 14.6438 7.615C14.0865 7.93767 13.4265 8.099 12.6638 8.099ZM12.6638 6.966C13.3898 6.966 13.9545 6.71667 14.3578 6.218C14.7612 5.71933 14.9628 5.00433 14.9628 4.073C14.9628 3.149 14.7612 2.44133 14.3578 1.95C13.9545 1.45133 13.3898 1.202 12.6638 1.202C11.9378 1.202 11.3732 1.44767 10.9698 1.939C10.5665 2.43033 10.3648 3.14167 10.3648 4.073C10.3648 5.00433 10.5665 5.71933 10.9698 6.218C11.3732 6.71667 11.9378 6.966 12.6638 6.966ZM24.7813 8H23.2853L22.2843 5.393C22.1963 5.151 22.0606 4.98233 21.8773 4.887C21.6939 4.79167 21.4556 4.744 21.1623 4.744H19.7433V8H18.3353V0.168H21.6903C22.5776 0.168 23.2523 0.362333 23.7143 0.751C24.1763 1.13967 24.4073 1.697 24.4073 2.423C24.4073 2.94367 24.2679 3.38733 23.9893 3.754C23.7179 4.11333 23.3293 4.37 22.8233 4.524C23.2853 4.61933 23.6189 4.942 23.8243 5.492L24.7813 8ZM21.4923 3.644C22.0276 3.644 22.4236 3.545 22.6803 3.347C22.9369 3.149 23.0653 2.84833 23.0653 2.445C23.0653 2.049 22.9369 1.75567 22.6803 1.565C22.4309 1.367 22.0349 1.268 21.4923 1.268H19.7213V3.644H21.4923ZM34.1929 0.168V8H32.9389V3.138L30.8599 8H29.9249L27.8349 3.193V8H26.5809V0.168H27.7029L30.3979 6.295L33.0709 0.168H34.1929ZM41.6076 6.163H37.7796L36.9876 8H35.5576L39.0996 0.168H40.2546L43.8076 8H42.3886L41.6076 6.163ZM41.1346 5.063L39.6936 1.708L38.2526 5.063H41.1346ZM45.1546 0.168H46.5736V6.834H50.2366V8H45.1546V0.168Z" fill="white"/>
</svg>
